# xmcd CD database file
#
# Track frame offsets:
#	150
#	12650
#	28050
#	35200
#	46350
#	57625
#	70425
#	81550
#	93075
#	106950
#	117875
#	132775
#	141700
#	154950
#	167325
#	181200
#
# Disc length: 2517 seconds
#
# Revision: 1
# Processed by: cddbd v1.5.2PL0 Copyright (c) Steve Scherf et al.
# Submitted via: CDex 1.70beta2
#
DISCID=ea09d310
DTITLE=Jonny Hill - Trucker-Weihnacht
DYEAR=1998
DGENRE=Weihnacht
TTITLE0=Alle Jahre wieder
TTITLE1=Stille Nacht, heilige Nacht
TTITLE2=Morgen, Kinder, wird's was geben
TTITLE3=Es wird scho glei dumpa
TTITLE4=Heidschi, Bumbeidschi
TTITLE5=Weihnachten auf hoher See
TTITLE6=Der kleine Trommler
TTITLE7=O Tannenbaum
TTITLE8=Zuhause brennt ein Lichterbaum
TTITLE9=Am Weihnachtsbaume die Lichter brennen
TTITLE10=Ihr Kinderlein kommet
TTITLE11=Heilige Nacht
TTITLE12=Oh, du fröhliche
TTITLE13=Es ist ein Ros' entsprungen
TTITLE14=Süßer die Glocken nie klingen
TTITLE15=Leise rieselt der Schnee
EXTD=YEAR: 1998
EXTT0=
EXTT1=
EXTT2=
EXTT3=
EXTT4=
EXTT5=
EXTT6=
EXTT7=
EXTT8=
EXTT9=
EXTT10=
EXTT11=
EXTT12=
EXTT13=
EXTT14=
EXTT15=
PLAYORDER=
